<svg xmlns="http://www.w3.org/2000/svg" width="19" height="44" viewBox="0 0 19 44"><path fill-rule="evenodd" clip-rule="evenodd" fill="#fff" d="M16 12.164v-10.706c0-.402-5.037-1.458-6.479-1.458-1.5 0-6.521 1.056-6.521 1.458v10.706c-1 .578-3 3.619-3 5.028v26.296c0 .403.196.512.599.512h17.831c.403 0 .57-.109.57-.512v-26.296c0-1.409-2-4.45-3-5.028zm-6.989 5.71l.003-.365.004.365h-.007z"/><path fill="#888" d="M2.645 40.002v-.586l6.724-10.298c1.406-2.158 2.109-3.989 2.109-5.493 0-1.982-1.118-2.974-3.354-2.974-.791 0-1.533.208-2.227.622-.693.416-1.196.94-1.509 1.575l-1.89-1.553c.332-.957.984-1.719 1.956-2.285s2.146-.85 3.523-.85c2.061 0 3.672.476 4.834 1.429 1.162.951 1.743 2.297 1.743 4.035 0 1.611-.771 3.643-2.314 6.094l-4.82 7.647h8.408v2.637h-13.183z"/></svg>