<svg xmlns="http://www.w3.org/2000/svg" width="19" height="44" viewBox="0 0 19 44"><path fill-rule="evenodd" clip-rule="evenodd" fill="#fff" d="M16 12.164v-10.706c0-.402-5.037-1.458-6.479-1.458-1.5 0-6.521 1.056-6.521 1.458v10.706c-1 .578-3 3.619-3 5.028v26.296c0 .403.196.512.599.512h17.831c.403 0 .57-.109.57-.512v-26.296c0-1.409-2-4.45-3-5.028zm-6.989 5.71l.003-.365.004.365h-.007z"/><path fill="#888" d="M11.478 18.161l1.421 1.567c-.859.342-2.102 1.497-3.728 3.465-1.626 1.968-2.527 3.483-2.703 4.548.811-.781 1.938-1.172 3.384-1.172 1.895 0 3.413.605 4.556 1.816s1.714 2.876 1.714 4.995c0 2.1-.588 3.789-1.766 5.068-1.176 1.279-2.653 1.919-4.431 1.919-4.707 0-7.061-3.12-7.061-9.36 0-2.598.92-5.256 2.761-7.977 1.841-2.718 3.792-4.342 5.853-4.869zm-5.538 15.132c0 3.057 1.255 4.585 3.765 4.585 1.055 0 1.887-.397 2.498-1.194.609-.795.915-1.848.915-3.156 0-1.357-.322-2.441-.967-3.252s-1.475-1.216-2.49-1.216c-2.48 0-3.721 1.411-3.721 4.233z"/></svg>