<svg xmlns="http://www.w3.org/2000/svg" width="19" height="44" viewBox="0 0 19 44"><path fill-rule="evenodd" clip-rule="evenodd" fill="#fff" d="M16 12.164v-10.706c0-.402-5.037-1.458-6.479-1.458-1.5 0-6.521 1.056-6.521 1.458v10.706c-1 .578-3 3.619-3 5.028v26.296c0 .403.196.512.599.512h17.831c.403 0 .57-.109.57-.512v-26.296c0-1.409-2-4.45-3-5.028zm-6.989 5.71l.003-.365.004.365h-.007z"/><path fill="#888" d="M14.554 34.157v5.845h-2.783v-5.845h-9.771v-1.67l11.528-14.033h1.025v13.447h2.168v2.256h-2.167zm-2.783-9.858l-6.299 7.603h6.299v-7.603z"/></svg>