<svg xmlns="http://www.w3.org/2000/svg" width="19" height="44" viewBox="0 0 19 44"><path fill-rule="evenodd" clip-rule="evenodd" fill="#fff" d="M16 12.164v-10.706c0-.402-5.037-1.458-6.479-1.458-1.5 0-6.521 1.056-6.521 1.458v10.706c-1 .578-3 3.619-3 5.028v26.296c0 .403.196.512.599.512h17.831c.403 0 .57-.109.57-.512v-26.296c0-1.409-2-4.45-3-5.028zm-6.989 5.71l.003-.365.004.365h-.007z"/><path fill="#888" d="M5.032 29.528l-.996-.688v-10.386h10.679v2.49h-7.896v5.215c.723-.537 1.641-.806 2.754-.806 1.992 0 3.513.596 4.563 1.787 1.049 1.191 1.574 2.886 1.574 5.083 0 5.381-2.397 8.071-7.192 8.071-2.002 0-3.662-.557-4.98-1.67l1.128-2.446c1.328 1.084 2.607 1.626 3.838 1.626 2.754 0 4.131-1.719 4.131-5.156 0-3.203-1.357-4.805-4.072-4.805-1.309.001-2.486.562-3.531 1.685z"/></svg>