<svg xmlns="http://www.w3.org/2000/svg" width="19" height="44" viewBox="0 0 19 44"><path fill-rule="evenodd" clip-rule="evenodd" fill="#fff" d="M16 12.164v-10.706c0-.402-5.037-1.458-6.479-1.458-1.5 0-6.521 1.056-6.521 1.458v10.706c-1 .578-3 3.619-3 5.028v26.296c0 .403.196.512.599.512h17.831c.403 0 .57-.109.57-.512v-26.296c0-1.409-2-4.45-3-5.028zm-6.989 5.71l.003-.365.004.365h-.007z"/><path fill="#888" d="M3.23 38.479l1.406-2.256c.957 1.055 2.168 1.582 3.633 1.582 2.715 0 4.072-1.328 4.072-3.984 0-1.211-.396-2.194-1.187-2.951s-1.841-1.136-3.149-1.136h-.234v-2.374h.132c2.48 0 3.721-1.094 3.721-3.281 0-2.285-1.167-3.428-3.501-3.428-1.27 0-2.28.425-3.032 1.274l-1.304-1.992c.908-1.182 2.427-1.772 4.556-1.772 1.875 0 3.403.501 4.585 1.501 1.182 1.002 1.772 2.283 1.772 3.846 0 1.191-.329 2.246-.989 3.164-.658.918-1.433 1.533-2.321 1.846 1.23.4 2.21 1.082 2.937 2.043.729.963 1.092 2.127 1.092 3.494 0 1.992-.63 3.53-1.89 4.614s-3.027 1.626-5.303 1.626c-.957 0-1.895-.179-2.812-.535-.919-.356-1.646-.783-2.184-1.281z"/></svg>