<svg xmlns="http://www.w3.org/2000/svg" width="52" height="26" viewBox="0 0 52 26"><circle fill="#898989" cx="13" cy="13" r="13"/><path fill="#fff" d="M15.406 19.98l-.176.749c-.728.29-1.306.488-1.741.601-.433.117-.804.17-1.111.17-.63 0-1.103-.161-1.419-.483-.315-.325-.474-.728-.474-1.201 0-.183.017-.37.047-.566.033-.191.083-.44.154-.734l1.251-4.987c.062-.272.123-.566.183-.877.059-.314.09-.579.09-.799 0-.438-.074-.727-.221-.873-.146-.145-.441-.218-.891-.218-.174 0-.402.028-.691.082-.287.056-.504.103-.655.142l.178-.749c.614-.274 1.168-.477 1.654-.61.49-.131.875-.199 1.159-.199.647 0 1.116.152 1.407.458.293.305.438.714.438 1.23 0 .142-.017.332-.048.575-.032.241-.08.485-.142.727l-1.256 4.985c-.08.305-.148.602-.207.896-.06.29-.087.531-.087.719 0 .444.099.752.299.917s.526.243.974.243c.148 0 .362-.019.643-.056.279-.042.493-.09.642-.142zm.842-14.981c0 .447-.146.835-.439 1.167-.292.332-.654.498-1.089.498-.402 0-.748-.159-1.041-.475-.291-.315-.438-.678-.438-1.084 0-.428.146-.804.438-1.124.293-.319.638-.481 1.041-.481.45 0 .818.15 1.103.452.283.301.425.649.425 1.047z"/><circle fill="#898989" cx="39" cy="13" r="13"/><path fill="#fff" d="M43.102 20.936l-4.371-5.776-3.906 5.776h-3.325l5.824-8.12-5.348-7.752h3.204l3.596 5.455 4.025-5.455h3.147l-5.826 7.752 6.377 8.12h-3.397z"/></svg>